<mxfile host="Electron" agent="Mozilla/5.0 (Windows NT 10.0; Win64; x64) AppleWebKit/537.36 (KHTML, like Gecko) draw.io/26.0.4 Chrome/128.0.6613.186 Electron/32.2.5 Safari/537.36" version="26.0.4">
  <diagram name="Page-1" id="Gz4urGLNtPpxruCUMSEM">
    <mxGraphModel dx="350" dy="607" grid="1" gridSize="10" guides="1" tooltips="1" connect="1" arrows="1" fold="1" page="1" pageScale="1" pageWidth="850" pageHeight="1100" math="0" shadow="0">
      <root>
        <mxCell id="0" />
        <mxCell id="1" parent="0" />
        <mxCell id="djNSpo6RWtTgOndXAO1l-8" value="" style="endArrow=none;html=1;rounded=0;entryX=0.063;entryY=0.41;entryDx=0;entryDy=0;entryPerimeter=0;strokeWidth=3;fontStyle=0" parent="1" edge="1">
          <mxGeometry width="50" height="50" relative="1" as="geometry">
            <mxPoint x="199" y="100" as="sourcePoint" />
            <mxPoint x="330.08000000000004" y="100" as="targetPoint" />
            <Array as="points">
              <mxPoint x="209" y="100" />
            </Array>
          </mxGeometry>
        </mxCell>
        <mxCell id="djNSpo6RWtTgOndXAO1l-10" value="" style="endArrow=none;html=1;rounded=0;entryX=0.063;entryY=0.76;entryDx=0;entryDy=0;entryPerimeter=0;fontStyle=0" parent="1" edge="1">
          <mxGeometry width="50" height="50" relative="1" as="geometry">
            <mxPoint x="200" y="170" as="sourcePoint" />
            <mxPoint x="330.08000000000004" y="170" as="targetPoint" />
            <Array as="points">
              <mxPoint x="210" y="170" />
            </Array>
          </mxGeometry>
        </mxCell>
        <mxCell id="djNSpo6RWtTgOndXAO1l-1" value="" style="rounded=0;whiteSpace=wrap;html=1;fontStyle=0" parent="1" vertex="1">
          <mxGeometry x="40" y="40" width="160" height="200" as="geometry" />
        </mxCell>
        <mxCell id="djNSpo6RWtTgOndXAO1l-2" value="DRIVE_INPUTS" style="text;html=1;align=left;verticalAlign=bottom;whiteSpace=wrap;rounded=0;fontFamily=Lucida Console;fontStyle=0" parent="1" vertex="1">
          <mxGeometry x="40" y="20" width="160" height="20" as="geometry" />
        </mxCell>
        <mxCell id="djNSpo6RWtTgOndXAO1l-6" value="" style="endArrow=none;html=1;rounded=0;strokeWidth=3;fontStyle=0" parent="1" edge="1">
          <mxGeometry width="50" height="50" relative="1" as="geometry">
            <mxPoint x="520" y="133" as="sourcePoint" />
            <mxPoint x="620" y="133" as="targetPoint" />
            <Array as="points">
              <mxPoint x="530" y="133" />
            </Array>
          </mxGeometry>
        </mxCell>
        <mxCell id="djNSpo6RWtTgOndXAO1l-7" value="mask" style="text;html=1;align=left;verticalAlign=bottom;whiteSpace=wrap;rounded=0;fontFamily=Lucida Console;fontStyle=0" parent="1" vertex="1">
          <mxGeometry x="540" y="102" width="70" height="20" as="geometry" />
        </mxCell>
        <mxCell id="djNSpo6RWtTgOndXAO1l-9" value="countBits" style="text;html=1;align=left;verticalAlign=bottom;whiteSpace=wrap;rounded=0;fontFamily=Lucida Console;fontStyle=0" parent="1" vertex="1">
          <mxGeometry x="220" y="68" width="70" height="20" as="geometry" />
        </mxCell>
        <mxCell id="djNSpo6RWtTgOndXAO1l-11" value="directionMode" style="text;html=1;align=left;verticalAlign=bottom;whiteSpace=wrap;rounded=0;fontFamily=Lucida Console;fontStyle=0" parent="1" vertex="1">
          <mxGeometry x="211" y="150" width="70" height="20" as="geometry" />
        </mxCell>
        <mxCell id="djNSpo6RWtTgOndXAO1l-13" value="3" style="text;html=1;align=center;verticalAlign=bottom;whiteSpace=wrap;rounded=0;fontFamily=Lucida Console;fontStyle=0" parent="1" vertex="1">
          <mxGeometry x="220" y="113" width="70" height="20" as="geometry" />
        </mxCell>
        <mxCell id="djNSpo6RWtTgOndXAO1l-15" value="" style="rounded=0;whiteSpace=wrap;html=1;fontStyle=0" parent="1" vertex="1">
          <mxGeometry x="330" y="40" width="190" height="200" as="geometry" />
        </mxCell>
        <mxCell id="djNSpo6RWtTgOndXAO1l-16" value="CenterPattern" style="text;html=1;align=center;verticalAlign=bottom;whiteSpace=wrap;rounded=0;fontFamily=Lucida Console;fontStyle=0" parent="1" vertex="1">
          <mxGeometry x="330" y="218" width="190" height="20" as="geometry" />
        </mxCell>
        <mxCell id="djNSpo6RWtTgOndXAO1l-17" value="countBits" style="text;html=1;align=left;verticalAlign=bottom;whiteSpace=wrap;rounded=0;fontFamily=Lucida Console;fontStyle=0" parent="1" vertex="1">
          <mxGeometry x="340" y="92" width="70" height="20" as="geometry" />
        </mxCell>
        <mxCell id="djNSpo6RWtTgOndXAO1l-18" value="directionMode" style="text;html=1;align=left;verticalAlign=bottom;whiteSpace=wrap;rounded=0;fontFamily=Lucida Console;fontStyle=0" parent="1" vertex="1">
          <mxGeometry x="340" y="157" width="70" height="20" as="geometry" />
        </mxCell>
        <mxCell id="djNSpo6RWtTgOndXAO1l-19" value="mask" style="text;html=1;align=right;verticalAlign=bottom;whiteSpace=wrap;rounded=0;fontFamily=Lucida Console;fontStyle=0" parent="1" vertex="1">
          <mxGeometry x="435" y="122" width="70" height="20" as="geometry" />
        </mxCell>
        <mxCell id="djNSpo6RWtTgOndXAO1l-20" value="UUT" style="text;html=1;align=left;verticalAlign=bottom;whiteSpace=wrap;rounded=0;fontFamily=Lucida Console;fontStyle=0" parent="1" vertex="1">
          <mxGeometry x="330" y="20" width="190" height="20" as="geometry" />
        </mxCell>
        <mxCell id="o9xckDJLN9-hYEsjxlD6-5" value="16" style="text;html=1;align=center;verticalAlign=bottom;whiteSpace=wrap;rounded=0;fontFamily=Lucida Console;fontStyle=0" parent="1" vertex="1">
          <mxGeometry x="528" y="147.5" width="61" height="20" as="geometry" />
        </mxCell>
        <mxCell id="o9xckDJLN9-hYEsjxlD6-6" value="" style="endArrow=none;html=1;rounded=0;strokeWidth=1;fontStyle=0" parent="1" edge="1">
          <mxGeometry width="50" height="50" relative="1" as="geometry">
            <mxPoint x="554" y="144" as="sourcePoint" />
            <mxPoint x="563" y="122" as="targetPoint" />
          </mxGeometry>
        </mxCell>
        <mxCell id="2vUsmkNBvLoieRN3nyNa-6" value="" style="endArrow=none;html=1;rounded=0;strokeWidth=1;fontStyle=0" edge="1" parent="1">
          <mxGeometry width="50" height="50" relative="1" as="geometry">
            <mxPoint x="250.5" y="112" as="sourcePoint" />
            <mxPoint x="259.5" y="90" as="targetPoint" />
          </mxGeometry>
        </mxCell>
      </root>
    </mxGraphModel>
  </diagram>
</mxfile>
